<svg id="visual" viewBox="0 0 4000 3000" width="4000" height="3000" xmlns="http://www.w3.org/2000/svg" xmlns:xlink="http://www.w3.org/1999/xlink" version="1.1"><rect x="0" y="0" width="4000" height="3000" fill="#04ffff"></rect><g fill="#e78022"><circle r="126" cx="2052" cy="2795"></circle><circle r="48" cx="781" cy="1732"></circle><circle r="113" cx="2947" cy="1984"></circle><circle r="62" cx="2024" cy="2532"></circle><circle r="76" cx="3827" cy="1993"></circle><circle r="52" cx="3513" cy="884"></circle><circle r="95" cx="2753" cy="226"></circle><circle r="48" cx="3011" cy="346"></circle><circle r="116" cx="1299" cy="1471"></circle><circle r="92" cx="3473" cy="593"></circle><circle r="120" cx="2613" cy="517"></circle><circle r="98" cx="1323" cy="1912"></circle><circle r="113" cx="796" cy="1208"></circle><circle r="102" cx="3424" cy="2376"></circle><circle r="114" cx="409" cy="2241"></circle><circle r="69" cx="473" cy="1298"></circle><circle r="63" cx="1995" cy="2218"></circle><circle r="65" cx="1779" cy="617"></circle><circle r="93" cx="1762" cy="238"></circle><circle r="62" cx="2851" cy="1735"></circle><circle r="112" cx="619" cy="902"></circle><circle r="112" cx="1305" cy="139"></circle><circle r="105" cx="1436" cy="489"></circle><circle r="120" cx="2573" cy="2595"></circle><circle r="113" cx="234" cy="1189"></circle><circle r="63" cx="2065" cy="1560"></circle><circle r="73" cx="3033" cy="1520"></circle><circle r="73" cx="3826" cy="134"></circle><circle r="63" cx="1737" cy="2053"></circle><circle r="97" cx="237" cy="1795"></circle><circle r="49" cx="2831" cy="1130"></circle><circle r="102" cx="3446" cy="1895"></circle><circle r="75" cx="3654" cy="1167"></circle><circle r="66" cx="1180" cy="2216"></circle><circle r="52" cx="1722" cy="1128"></circle><circle r="88" cx="2309" cy="536"></circle><circle r="70" cx="2396" cy="1310"></circle><circle r="117" cx="3081" cy="2702"></circle><circle r="65" cx="1331" cy="814"></circle><circle r="112" cx="3435" cy="2816"></circle><circle r="72" cx="790" cy="2481"></circle><circle r="48" cx="784" cy="576"></circle><circle r="110" cx="1221" cy="2548"></circle><circle r="71" cx="697" cy="2074"></circle><circle r="52" cx="1073" cy="521"></circle><circle r="65" cx="3327" cy="338"></circle><circle r="71" cx="2374" cy="2095"></circle><circle r="115" cx="2941" cy="851"></circle><circle r="118" cx="1204" cy="1077"></circle><circle r="74" cx="929" cy="297"></circle><circle r="120" cx="2468" cy="891"></circle><circle r="48" cx="1604" cy="833"></circle><circle r="86" cx="1525" cy="2761"></circle><circle r="87" cx="2565" cy="1498"></circle><circle r="110" cx="1556" cy="2495"></circle><circle r="49" cx="3623" cy="1459"></circle><circle r="82" cx="1054" cy="1346"></circle><circle r="81" cx="3727" cy="2663"></circle><circle r="92" cx="2301" cy="2346"></circle><circle r="95" cx="2687" cy="2185"></circle><circle r="55" cx="2214" cy="878"></circle><circle r="54" cx="2963" cy="2322"></circle><circle r="77" cx="3223" cy="664"></circle><circle r="88" cx="214" cy="2556"></circle><circle r="124" cx="1206" cy="2806"></circle><circle r="65" cx="3194" cy="1717"></circle><circle r="50" cx="961" cy="2090"></circle><circle r="124" cx="1519" cy="1651"></circle><circle r="84" cx="161" cy="2195"></circle><circle r="91" cx="2377" cy="2841"></circle><circle r="62" cx="1457" cy="1119"></circle><circle r="121" cx="485" cy="479"></circle><circle r="75" cx="159" cy="261"></circle><circle r="54" cx="126" cy="609"></circle><circle r="117" cx="1023" cy="823"></circle><circle r="115" cx="190" cy="1484"></circle><circle r="72" cx="593" cy="2779"></circle><circle r="94" cx="3812" cy="841"></circle><circle r="61" cx="678" cy="226"></circle><circle r="53" cx="2431" cy="250"></circle><circle r="61" cx="3317" cy="1441"></circle><circle r="104" cx="523" cy="1698"></circle><circle r="95" cx="3763" cy="2369"></circle><circle r="101" cx="247" cy="905"></circle><circle r="73" cx="1034" cy="1616"></circle><circle r="92" cx="2027" cy="1309"></circle><circle r="79" cx="2081" cy="1935"></circle><circle r="47" cx="2749" cy="2799"></circle><circle r="55" cx="2029" cy="160"></circle><circle r="70" cx="3226" cy="991"></circle><circle r="87" cx="3747" cy="1694"></circle><circle r="57" cx="3598" cy="241"></circle><circle r="86" cx="2396" cy="1773"></circle><circle r="123" cx="1750" cy="1398"></circle><circle r="68" cx="1887" cy="872"></circle><circle r="72" cx="3863" cy="385"></circle><circle r="86" cx="410" cy="207"></circle><circle r="99" cx="221" cy="2812"></circle><circle r="121" cx="1803" cy="2853"></circle><circle r="86" cx="2053" cy="555"></circle><circle r="115" cx="3198" cy="2159"></circle><circle r="106" cx="3590" cy="2109"></circle><circle r="92" cx="2826" cy="2546"></circle><circle r="104" cx="1881" cy="1735"></circle><circle r="81" cx="945" cy="2738"></circle><circle r="49" cx="1473" cy="2120"></circle><circle r="121" cx="508" cy="2489"></circle><circle r="62" cx="2862" cy="556"></circle><circle r="49" cx="2655" cy="1917"></circle><circle r="97" cx="674" cy="1491"></circle><circle r="54" cx="1810" cy="2395"></circle><circle r="61" cx="3148" cy="1236"></circle><circle r="95" cx="3856" cy="1335"></circle><circle r="98" cx="2270" cy="2598"></circle><circle r="71" cx="455" cy="1945"></circle><circle r="55" cx="3181" cy="2451"></circle><circle r="122" cx="3176" cy="129"></circle><circle r="123" cx="2790" cy="1379"></circle></g></svg>