<svg version="1.2" baseProfile="tiny-ps" xmlns="http://www.w3.org/2000/svg" viewBox="0 0 443 111" width="443" height="111">
	<title>Page 1</title>
	<style>
		tspan { white-space:pre }
		.shp0 { fill: #fff0d8 } 
	</style>
	<g id="Page 1">
		<path id="Path 6 copy" fill-rule="evenodd" class="shp0" d="M431.76 99.41C424.57 106.79 415.88 110.47 405.7 110.47C395.51 110.47 387.45 107.57 381.5 101.76C380.48 100.77 379.59 99.73 378.75 98.66C373.69 106.47 366.95 110.47 358.44 110.47C352.54 110.47 348.16 108.67 345.31 105.05C342.45 101.43 341.02 97.62 341.02 93.63L344.45 61.79C344.45 59.22 343.78 57.07 342.45 55.36C341.12 53.65 338.9 52.79 335.81 52.79C332.72 52.79 330.1 54.15 327.96 56.86C325.82 59.57 324.46 62.98 323.89 67.07C320.46 93.15 318.65 107.33 318.46 109.62L299.19 109.62L299.61 106C295.63 109.06 291.07 110.62 285.91 110.62C279.53 110.62 274.8 109.05 271.71 105.9C270.61 104.79 269.78 103.52 269.07 102.19C264.39 107.55 258.51 110.33 251.36 110.33C245.46 110.33 241.08 108.52 238.23 104.9C235.37 101.29 233.94 97.48 233.94 93.48L237.37 61.93C237.37 59.36 236.7 57.22 235.37 55.5C234.04 53.79 231.92 52.93 229.02 52.93C226.11 52.93 223.57 54.03 221.38 56.22C219.19 58.41 217.67 61.21 216.81 64.64C213.95 88.82 212.1 103.81 211.24 109.62L192.82 109.62L198.25 62.21C198.25 59.55 197.61 57.34 196.32 55.58C195.04 53.81 192.77 52.93 189.54 52.93C186.3 52.93 183.64 54.48 181.54 57.57C179.45 60.67 178.12 63.93 177.55 67.35C174.21 91.06 172.36 105.14 171.98 109.62L152.85 109.62L153.42 104.68C149.09 108.62 144 110.62 138.14 110.62C131.76 110.62 127.03 109.05 123.93 105.9C122.25 104.2 121.07 102.2 120.3 99.95C118.85 101.23 117.35 102.43 115.8 103.55C109.37 108.17 103.3 110.47 97.59 110.47C91.88 110.47 87.93 109 85.74 106.05C83.55 103.1 82.46 99.81 82.46 96.2C82.46 95.34 82.58 93.67 82.82 91.2C83.05 88.72 84.93 73.3 88.46 44.94L65.04 99.05L52.9 99.05L45.91 45.79L35.91 90.06C34.29 97.1 31.65 102.29 27.99 105.62C24.32 108.95 20.3 110.62 15.92 110.62C11.54 110.62 7.98 109.33 5.22 106.76C2.26 104 0.79 100.1 0.79 95.05C0.79 84.96 8.59 76.35 24.21 69.21C32.68 28.57 37.24 6.06 37.91 1.68C40.2 1.11 43.27 0.82 47.12 0.82C50.98 0.82 53.62 0.92 55.05 1.11L56.04 1.11L64.9 67.5L93.45 2.68L93.45 1.96C95.45 1.2 98.26 0.82 101.88 0.82C105.49 0.82 108.73 1.06 111.59 1.53C108.63 23.43 106.32 43.25 104.66 61C102.99 78.75 102.09 88.11 101.95 89.06C101.8 90.01 101.73 90.87 101.73 91.63C101.83 94.1 103.02 95.34 105.3 95.34C109.15 95.34 114.04 92.28 119.92 86.31L124.58 46.37C125.53 44.65 127.34 43.35 130 42.44C132.67 41.54 135.31 41.08 137.93 41.08C140.54 41.08 142.85 41.42 144.85 42.08C141.14 70.73 139.28 85.2 139.28 85.49C138.81 87.39 138.57 88.98 138.57 90.27C138.57 91.56 138.66 92.67 138.85 93.63C139.23 96.1 140.97 97.34 144.07 97.34C147.16 97.34 150.01 95.32 152.63 91.27C153.76 89.52 154.75 87.65 155.64 85.69L160.7 42.51C164.7 41.46 167.74 40.94 169.84 40.94C175.83 40.94 179.12 42.94 179.69 46.94C184.35 42.94 189.44 40.94 194.96 40.94C206 40.94 213.05 44.22 216.1 50.79C220.76 44.13 227.42 40.8 236.08 40.8C242.46 40.8 247.51 42.44 251.22 45.72C254.93 49.01 256.79 53.13 256.79 58.07C256.79 59.5 256.5 62.02 255.93 65.64C253.74 79.92 252.65 88.3 252.65 90.77C252.65 95.24 254.12 97.48 257.07 97.48C259.55 97.48 262.19 95.84 265 92.55C265.85 91.56 266.63 90.35 267.38 89.03L272.35 46.37C273.3 44.65 275.11 43.35 277.77 42.44C280.44 41.54 283.08 41.08 285.7 41.08C288.31 41.08 290.62 41.42 292.62 42.08C288.91 70.73 287.05 85.2 287.05 85.49C286.58 87.39 286.34 88.98 286.34 90.27C286.34 91.56 286.43 92.67 286.63 93.63C287 96.1 288.74 97.34 291.84 97.34C294.93 97.34 297.78 95.32 300.4 91.27C300.81 90.63 301.18 89.96 301.56 89.3L307.04 42.37C311.04 41.32 314.08 40.8 316.18 40.8C322.55 40.8 325.89 43.13 326.17 47.79C330.84 43.22 336.43 40.94 342.95 40.94C349.47 40.94 354.59 42.56 358.3 45.79C362.01 49.03 363.87 53.13 363.87 58.07C363.87 59.41 363.58 61.93 363.01 65.64C360.82 80.11 359.73 88.53 359.73 90.91C359.73 95.29 361.2 97.48 364.15 97.48C368.05 97.48 371.36 94.98 374.12 90.09C373.11 87.02 372.58 83.74 372.58 80.2C372.58 68.21 376.24 58.69 383.57 51.65C390.99 44.51 400.42 40.94 411.84 40.94C420.6 40.94 427.9 43.75 433.76 49.36C439.61 54.98 442.54 61.83 442.54 69.92C442.54 82.2 438.94 92.03 431.76 99.41ZM10.93 92.63C10.93 95.67 12.12 97.19 14.5 97.19C16.11 97.19 17.45 95.91 18.49 93.34C19.83 90.2 20.92 86.06 21.78 80.92C14.54 85.01 10.93 88.91 10.93 92.63ZM419.12 58.5C416.93 54.5 413.57 52.51 409.05 52.51C404.53 52.51 400.75 55.08 397.7 60.22C394.66 65.36 392.99 71.83 392.71 79.63C392.71 85.15 393.82 89.72 396.06 93.34C398.3 96.96 401.7 98.77 406.27 98.77C410.84 98.77 414.67 96.24 417.76 91.2C420.86 86.15 422.4 80.4 422.4 73.92C422.4 67.45 421.31 62.31 419.12 58.5ZM286.2 23.81C283.06 23.81 280.39 22.71 278.2 20.52C276.01 18.33 274.92 15.67 274.92 12.53C274.92 9.39 276.01 6.7 278.2 4.46C280.39 2.23 283.06 1.11 286.2 1.11C289.34 1.11 292.03 2.23 294.26 4.46C296.5 6.7 297.62 9.39 297.62 12.53C297.62 15.67 296.5 18.33 294.26 20.52C292.03 22.71 289.34 23.81 286.2 23.81ZM138.43 23.81C135.29 23.81 132.62 22.71 130.43 20.52C128.24 18.33 127.15 15.67 127.15 12.53C127.15 9.39 128.24 6.7 130.43 4.46C132.62 2.23 135.29 1.11 138.43 1.11C141.57 1.11 144.26 2.23 146.49 4.46C148.73 6.7 149.85 9.39 149.85 12.53C149.85 15.67 148.73 18.33 146.49 20.52C144.26 22.71 141.57 23.81 138.43 23.81Z" />
	</g>
</svg>