<svg id="visual" viewBox="0 0 8000 300" width="8000" height="300" xmlns="http://www.w3.org/2000/svg" xmlns:xlink="http://www.w3.org/1999/xlink" version="1.1"><path d="M0 100L74 97.2C148 94.3 296 88.7 444.2 92.2C592.3 95.7 740.7 108.3 888.8 110.7C1037 113 1185 105 1333.2 95.8C1481.3 86.7 1629.7 76.3 1777.8 83.3C1926 90.3 2074 114.7 2222.2 132.3C2370.3 150 2518.7 161 2666.8 146C2815 131 2963 90 3111.2 84.5C3259.3 79 3407.7 109 3555.8 110.2C3704 111.3 3852 83.7 4000 78.2C4148 72.7 4296 89.3 4444.2 94.2C4592.3 99 4740.7 92 4888.8 86C5037 80 5185 75 5333.2 72.2C5481.3 69.3 5629.7 68.7 5777.8 70.8C5926 73 6074 78 6222.2 97.3C6370.3 116.7 6518.7 150.3 6666.8 145.5C6815 140.7 6963 97.3 7111.2 97.5C7259.3 97.7 7407.7 141.3 7555.8 142.3C7704 143.3 7852 101.7 7926 80.8L8000 60L8000 301L7926 301C7852 301 7704 301 7555.8 301C7407.7 301 7259.3 301 7111.2 301C6963 301 6815 301 6666.8 301C6518.7 301 6370.3 301 6222.2 301C6074 301 5926 301 5777.8 301C5629.7 301 5481.3 301 5333.2 301C5185 301 5037 301 4888.8 301C4740.7 301 4592.3 301 4444.2 301C4296 301 4148 301 4000 301C3852 301 3704 301 3555.8 301C3407.7 301 3259.3 301 3111.2 301C2963 301 2815 301 2666.8 301C2518.7 301 2370.3 301 2222.2 301C2074 301 1926 301 1777.8 301C1629.7 301 1481.3 301 1333.2 301C1185 301 1037 301 888.8 301C740.7 301 592.3 301 444.2 301C296 301 148 301 74 301L0 301Z" fill="#c0f84f"></path><path d="M0 171L74 170.5C148 170 296 169 444.2 166.5C592.3 164 740.7 160 888.8 148C1037 136 1185 116 1333.2 112.3C1481.3 108.7 1629.7 121.3 1777.8 131C1926 140.7 2074 147.3 2222.2 141.2C2370.3 135 2518.7 116 2666.8 107.8C2815 99.7 2963 102.3 3111.2 105.8C3259.3 109.3 3407.7 113.7 3555.8 131C3704 148.3 3852 178.7 4000 186.5C4148 194.3 4296 179.7 4444.2 175.2C4592.3 170.7 4740.7 176.3 4888.8 174.2C5037 172 5185 162 5333.2 158C5481.3 154 5629.7 156 5777.8 150.7C5926 145.3 6074 132.7 6222.2 123C6370.3 113.3 6518.7 106.7 6666.8 115.3C6815 124 6963 148 7111.2 151.3C7259.3 154.7 7407.7 137.3 7555.8 134.3C7704 131.3 7852 142.7 7926 148.3L8000 154L8000 301L7926 301C7852 301 7704 301 7555.8 301C7407.7 301 7259.3 301 7111.2 301C6963 301 6815 301 6666.8 301C6518.7 301 6370.3 301 6222.2 301C6074 301 5926 301 5777.8 301C5629.7 301 5481.3 301 5333.2 301C5185 301 5037 301 4888.8 301C4740.7 301 4592.3 301 4444.2 301C4296 301 4148 301 4000 301C3852 301 3704 301 3555.8 301C3407.7 301 3259.3 301 3111.2 301C2963 301 2815 301 2666.8 301C2518.7 301 2370.3 301 2222.2 301C2074 301 1926 301 1777.8 301C1629.7 301 1481.3 301 1333.2 301C1185 301 1037 301 888.8 301C740.7 301 592.3 301 444.2 301C296 301 148 301 74 301L0 301Z" fill="#d3fa81"></path><path d="M0 205L74 199.5C148 194 296 183 444.2 173.2C592.3 163.3 740.7 154.7 888.8 151.7C1037 148.7 1185 151.3 1333.2 160.8C1481.3 170.3 1629.7 186.7 1777.8 199.2C1926 211.7 2074 220.3 2222.2 224.8C2370.3 229.3 2518.7 229.7 2666.8 217.5C2815 205.3 2963 180.7 3111.2 181.3C3259.3 182 3407.7 208 3555.8 213.2C3704 218.3 3852 202.7 4000 187.3C4148 172 4296 157 4444.2 161.3C4592.3 165.7 4740.7 189.3 4888.8 205.5C5037 221.7 5185 230.3 5333.2 230C5481.3 229.7 5629.7 220.3 5777.8 208.8C5926 197.3 6074 183.7 6222.2 178.3C6370.3 173 6518.7 176 6666.8 176.3C6815 176.7 6963 174.3 7111.2 182.7C7259.3 191 7407.7 210 7555.8 219.3C7704 228.7 7852 228.3 7926 228.2L8000 228L8000 301L7926 301C7852 301 7704 301 7555.8 301C7407.7 301 7259.3 301 7111.2 301C6963 301 6815 301 6666.8 301C6518.7 301 6370.3 301 6222.2 301C6074 301 5926 301 5777.8 301C5629.7 301 5481.3 301 5333.2 301C5185 301 5037 301 4888.8 301C4740.7 301 4592.3 301 4444.2 301C4296 301 4148 301 4000 301C3852 301 3704 301 3555.8 301C3407.7 301 3259.3 301 3111.2 301C2963 301 2815 301 2666.8 301C2518.7 301 2370.3 301 2222.2 301C2074 301 1926 301 1777.8 301C1629.7 301 1481.3 301 1333.2 301C1185 301 1037 301 888.8 301C740.7 301 592.3 301 444.2 301C296 301 148 301 74 301L0 301Z" fill="#e4fcac"></path><path d="M0 230L74 223.8C148 217.7 296 205.3 444.2 205.7C592.3 206 740.7 219 888.8 220.7C1037 222.3 1185 212.7 1333.2 211.7C1481.3 210.7 1629.7 218.3 1777.8 215.7C1926 213 2074 200 2222.2 204C2370.3 208 2518.7 229 2666.8 234.3C2815 239.7 2963 229.3 3111.2 228.3C3259.3 227.3 3407.7 235.7 3555.8 243C3704 250.3 3852 256.7 4000 246.5C4148 236.3 4296 209.7 4444.2 205.5C4592.3 201.3 4740.7 219.7 4888.8 219.7C5037 219.7 5185 201.3 5333.2 197.8C5481.3 194.3 5629.7 205.7 5777.8 208C5926 210.3 6074 203.7 6222.2 198.5C6370.3 193.3 6518.7 189.7 6666.8 198C6815 206.3 6963 226.7 7111.2 229.7C7259.3 232.7 7407.7 218.3 7555.8 207C7704 195.7 7852 187.3 7926 183.2L8000 179L8000 301L7926 301C7852 301 7704 301 7555.8 301C7407.7 301 7259.3 301 7111.2 301C6963 301 6815 301 6666.8 301C6518.7 301 6370.3 301 6222.2 301C6074 301 5926 301 5777.8 301C5629.7 301 5481.3 301 5333.2 301C5185 301 5037 301 4888.8 301C4740.7 301 4592.3 301 4444.2 301C4296 301 4148 301 4000 301C3852 301 3704 301 3555.8 301C3407.7 301 3259.3 301 3111.2 301C2963 301 2815 301 2666.8 301C2518.7 301 2370.3 301 2222.2 301C2074 301 1926 301 1777.8 301C1629.7 301 1481.3 301 1333.2 301C1185 301 1037 301 888.8 301C740.7 301 592.3 301 444.2 301C296 301 148 301 74 301L0 301Z" fill="#f3fed6"></path><path d="M0 254L74 259C148 264 296 274 444.2 268.5C592.3 263 740.7 242 888.8 236.2C1037 230.3 1185 239.7 1333.2 245.7C1481.3 251.7 1629.7 254.3 1777.8 256C1926 257.7 2074 258.3 2222.2 253.8C2370.3 249.3 2518.7 239.7 2666.8 236.8C2815 234 2963 238 3111.2 237.7C3259.3 237.3 3407.7 232.7 3555.8 234.8C3704 237 3852 246 4000 247.2C4148 248.3 4296 241.7 4444.2 240.3C4592.3 239 4740.7 243 4888.8 243C5037 243 5185 239 5333.2 243.5C5481.3 248 5629.7 261 5777.8 260.7C5926 260.3 6074 246.7 6222.2 237.3C6370.3 228 6518.7 223 6666.8 224.8C6815 226.7 6963 235.3 7111.2 238C7259.3 240.7 7407.7 237.3 7555.8 236.5C7704 235.7 7852 237.3 7926 238.2L8000 239L8000 301L7926 301C7852 301 7704 301 7555.8 301C7407.7 301 7259.3 301 7111.2 301C6963 301 6815 301 6666.8 301C6518.7 301 6370.3 301 6222.2 301C6074 301 5926 301 5777.8 301C5629.7 301 5481.3 301 5333.2 301C5185 301 5037 301 4888.8 301C4740.7 301 4592.3 301 4444.2 301C4296 301 4148 301 4000 301C3852 301 3704 301 3555.8 301C3407.7 301 3259.3 301 3111.2 301C2963 301 2815 301 2666.8 301C2518.7 301 2370.3 301 2222.2 301C2074 301 1926 301 1777.8 301C1629.7 301 1481.3 301 1333.2 301C1185 301 1037 301 888.8 301C740.7 301 592.3 301 444.2 301C296 301 148 301 74 301L0 301Z" fill="#ffffff"></path></svg>