<svg id="visual" viewBox="0 0 4000 900" width="4000" height="900" xmlns="http://www.w3.org/2000/svg" xmlns:xlink="http://www.w3.org/1999/xlink" version="1.1"><path d="M0 305L60.7 300.5C121.3 296 242.7 287 363.8 294.2C485 301.3 606 324.7 727.2 316.2C848.3 307.7 969.7 267.3 1091 260.5C1212.3 253.7 1333.7 280.3 1454.8 265.3C1576 250.3 1697 193.7 1818.2 189.2C1939.3 184.7 2060.7 232.3 2181.8 259.2C2303 286 2424 292 2545.2 281C2666.3 270 2787.7 242 2909 229.3C3030.3 216.7 3151.7 219.3 3272.8 223.3C3394 227.3 3515 232.7 3636.2 259.7C3757.3 286.7 3878.7 335.3 3939.3 359.7L4000 384L4000 901L3939.3 901C3878.7 901 3757.3 901 3636.2 901C3515 901 3394 901 3272.8 901C3151.7 901 3030.3 901 2909 901C2787.7 901 2666.3 901 2545.2 901C2424 901 2303 901 2181.8 901C2060.7 901 1939.3 901 1818.2 901C1697 901 1576 901 1454.8 901C1333.7 901 1212.3 901 1091 901C969.7 901 848.3 901 727.2 901C606 901 485 901 363.8 901C242.7 901 121.3 901 60.7 901L0 901Z" fill="#c0f84f"></path><path d="M0 344L60.7 362.3C121.3 380.7 242.7 417.3 363.8 401.7C485 386 606 318 727.2 311.8C848.3 305.7 969.7 361.3 1091 394.7C1212.3 428 1333.7 439 1454.8 416.3C1576 393.7 1697 337.3 1818.2 299C1939.3 260.7 2060.7 240.3 2181.8 242.7C2303 245 2424 270 2545.2 288.3C2666.3 306.7 2787.7 318.3 2909 345.5C3030.3 372.7 3151.7 415.3 3272.8 415.5C3394 415.7 3515 373.3 3636.2 337.8C3757.3 302.3 3878.7 273.7 3939.3 259.3L4000 245L4000 901L3939.3 901C3878.7 901 3757.3 901 3636.2 901C3515 901 3394 901 3272.8 901C3151.7 901 3030.3 901 2909 901C2787.7 901 2666.3 901 2545.2 901C2424 901 2303 901 2181.8 901C2060.7 901 1939.3 901 1818.2 901C1697 901 1576 901 1454.8 901C1333.7 901 1212.3 901 1091 901C969.7 901 848.3 901 727.2 901C606 901 485 901 363.8 901C242.7 901 121.3 901 60.7 901L0 901Z" fill="#c3f957"></path><path d="M0 407L60.7 412.3C121.3 417.7 242.7 428.3 363.8 444.3C485 460.3 606 481.7 727.2 501.5C848.3 521.3 969.7 539.7 1091 523.3C1212.3 507 1333.7 456 1454.8 446C1576 436 1697 467 1818.2 495.8C1939.3 524.7 2060.7 551.3 2181.8 523C2303 494.7 2424 411.3 2545.2 408.8C2666.3 406.3 2787.7 484.7 2909 487.5C3030.3 490.3 3151.7 417.7 3272.8 398.5C3394 379.3 3515 413.7 3636.2 440.2C3757.3 466.7 3878.7 485.3 3939.3 494.7L4000 504L4000 901L3939.3 901C3878.7 901 3757.3 901 3636.2 901C3515 901 3394 901 3272.8 901C3151.7 901 3030.3 901 2909 901C2787.7 901 2666.3 901 2545.2 901C2424 901 2303 901 2181.8 901C2060.7 901 1939.3 901 1818.2 901C1697 901 1576 901 1454.8 901C1333.7 901 1212.3 901 1091 901C969.7 901 848.3 901 727.2 901C606 901 485 901 363.8 901C242.7 901 121.3 901 60.7 901L0 901Z" fill="#c7fb5e"></path><path d="M0 433L60.7 451.2C121.3 469.3 242.7 505.7 363.8 532.7C485 559.7 606 577.3 727.2 569.7C848.3 562 969.7 529 1091 516.8C1212.3 504.7 1333.7 513.3 1454.8 508.2C1576 503 1697 484 1818.2 497.8C1939.3 511.7 2060.7 558.3 2181.8 565.5C2303 572.7 2424 540.3 2545.2 540.5C2666.3 540.7 2787.7 573.3 2909 560.7C3030.3 548 3151.7 490 3272.8 494.5C3394 499 3515 566 3636.2 600.5C3757.3 635 3878.7 637 3939.3 638L4000 639L4000 901L3939.3 901C3878.7 901 3757.3 901 3636.2 901C3515 901 3394 901 3272.8 901C3151.7 901 3030.3 901 2909 901C2787.7 901 2666.3 901 2545.2 901C2424 901 2303 901 2181.8 901C2060.7 901 1939.3 901 1818.2 901C1697 901 1576 901 1454.8 901C1333.7 901 1212.3 901 1091 901C969.7 901 848.3 901 727.2 901C606 901 485 901 363.8 901C242.7 901 121.3 901 60.7 901L0 901Z" fill="#cafc65"></path><path d="M0 621L60.7 605.8C121.3 590.7 242.7 560.3 363.8 546.5C485 532.7 606 535.3 727.2 533.7C848.3 532 969.7 526 1091 552C1212.3 578 1333.7 636 1454.8 637C1576 638 1697 582 1818.2 555.5C1939.3 529 2060.7 532 2181.8 544.7C2303 557.3 2424 579.7 2545.2 588C2666.3 596.3 2787.7 590.7 2909 596.3C3030.3 602 3151.7 619 3272.8 633.3C3394 647.7 3515 659.3 3636.2 664C3757.3 668.7 3878.7 666.3 3939.3 665.2L4000 664L4000 901L3939.3 901C3878.7 901 3757.3 901 3636.2 901C3515 901 3394 901 3272.8 901C3151.7 901 3030.3 901 2909 901C2787.7 901 2666.3 901 2545.2 901C2424 901 2303 901 2181.8 901C2060.7 901 1939.3 901 1818.2 901C1697 901 1576 901 1454.8 901C1333.7 901 1212.3 901 1091 901C969.7 901 848.3 901 727.2 901C606 901 485 901 363.8 901C242.7 901 121.3 901 60.7 901L0 901Z" fill="#cdfd6c"></path><path d="M0 717L60.7 707.8C121.3 698.7 242.7 680.3 363.8 676.2C485 672 606 682 727.2 681.3C848.3 680.7 969.7 669.3 1091 657.8C1212.3 646.3 1333.7 634.7 1454.8 637.2C1576 639.7 1697 656.3 1818.2 678.7C1939.3 701 2060.7 729 2181.8 745.3C2303 761.7 2424 766.3 2545.2 766.7C2666.3 767 2787.7 763 2909 749C3030.3 735 3151.7 711 3272.8 694.7C3394 678.3 3515 669.7 3636.2 669.8C3757.3 670 3878.7 679 3939.3 683.5L4000 688L4000 901L3939.3 901C3878.7 901 3757.3 901 3636.2 901C3515 901 3394 901 3272.8 901C3151.7 901 3030.3 901 2909 901C2787.7 901 2666.3 901 2545.2 901C2424 901 2303 901 2181.8 901C2060.7 901 1939.3 901 1818.2 901C1697 901 1576 901 1454.8 901C1333.7 901 1212.3 901 1091 901C969.7 901 848.3 901 727.2 901C606 901 485 901 363.8 901C242.7 901 121.3 901 60.7 901L0 901Z" fill="#d0fe73"></path><path d="M0 724L60.7 731.2C121.3 738.3 242.7 752.7 363.8 759.5C485 766.3 606 765.7 727.2 759.7C848.3 753.7 969.7 742.3 1091 749.5C1212.3 756.7 1333.7 782.3 1454.8 788C1576 793.7 1697 779.3 1818.2 780.2C1939.3 781 2060.7 797 2181.8 809.2C2303 821.3 2424 829.7 2545.2 818.5C2666.3 807.3 2787.7 776.7 2909 759C3030.3 741.3 3151.7 736.7 3272.8 747.8C3394 759 3515 786 3636.2 802.8C3757.3 819.7 3878.7 826.3 3939.3 829.7L4000 833L4000 901L3939.3 901C3878.7 901 3757.3 901 3636.2 901C3515 901 3394 901 3272.8 901C3151.7 901 3030.3 901 2909 901C2787.7 901 2666.3 901 2545.2 901C2424 901 2303 901 2181.8 901C2060.7 901 1939.3 901 1818.2 901C1697 901 1576 901 1454.8 901C1333.7 901 1212.3 901 1091 901C969.7 901 848.3 901 727.2 901C606 901 485 901 363.8 901C242.7 901 121.3 901 60.7 901L0 901Z" fill="#d3ff7a"></path></svg>