<svg id="visual" viewBox="0 0 4000 900" width="4000" height="900" xmlns="http://www.w3.org/2000/svg" xmlns:xlink="http://www.w3.org/1999/xlink" version="1.1"><path d="M0 592L60.7 605.3C121.3 618.7 242.7 645.3 363.8 649.7C485 654 606 636 727.2 633C848.3 630 969.7 642 1091 634.8C1212.3 627.7 1333.7 601.3 1454.8 592.5C1576 583.7 1697 592.3 1818.2 576.2C1939.3 560 2060.7 519 2181.8 515.3C2303 511.7 2424 545.3 2545.2 558C2666.3 570.7 2787.7 562.3 2909 556.7C3030.3 551 3151.7 548 3272.8 536.5C3394 525 3515 505 3636.2 492.2C3757.3 479.3 3878.7 473.7 3939.3 470.8L4000 468L4000 0L3939.3 0C3878.7 0 3757.3 0 3636.2 0C3515 0 3394 0 3272.8 0C3151.7 0 3030.3 0 2909 0C2787.7 0 2666.3 0 2545.2 0C2424 0 2303 0 2181.8 0C2060.7 0 1939.3 0 1818.2 0C1697 0 1576 0 1454.8 0C1333.7 0 1212.3 0 1091 0C969.7 0 848.3 0 727.2 0C606 0 485 0 363.8 0C242.7 0 121.3 0 60.7 0L0 0Z" fill="#ffffff"></path><path d="M0 683L60.7 638.5C121.3 594 242.7 505 363.8 483.7C485 462.3 606 508.7 727.2 549.5C848.3 590.3 969.7 625.7 1091 612.3C1212.3 599 1333.7 537 1454.8 505.8C1576 474.7 1697 474.3 1818.2 471C1939.3 467.7 2060.7 461.3 2181.8 464.5C2303 467.7 2424 480.3 2545.2 493.7C2666.3 507 2787.7 521 2909 507.3C3030.3 493.7 3151.7 452.3 3272.8 431.7C3394 411 3515 411 3636.2 433.5C3757.3 456 3878.7 501 3939.3 523.5L4000 546L4000 0L3939.3 0C3878.7 0 3757.3 0 3636.2 0C3515 0 3394 0 3272.8 0C3151.7 0 3030.3 0 2909 0C2787.7 0 2666.3 0 2545.2 0C2424 0 2303 0 2181.8 0C2060.7 0 1939.3 0 1818.2 0C1697 0 1576 0 1454.8 0C1333.7 0 1212.3 0 1091 0C969.7 0 848.3 0 727.2 0C606 0 485 0 363.8 0C242.7 0 121.3 0 60.7 0L0 0Z" fill="#f9ffe9"></path><path d="M0 505L60.7 473.2C121.3 441.3 242.7 377.7 363.8 350.2C485 322.7 606 331.3 727.2 362.2C848.3 393 969.7 446 1091 466C1212.3 486 1333.7 473 1454.8 451.8C1576 430.7 1697 401.3 1818.2 385.8C1939.3 370.3 2060.7 368.7 2181.8 372.8C2303 377 2424 387 2545.2 381.8C2666.3 376.7 2787.7 356.3 2909 362.5C3030.3 368.7 3151.7 401.3 3272.8 411C3394 420.7 3515 407.3 3636.2 390.7C3757.3 374 3878.7 354 3939.3 344L4000 334L4000 0L3939.3 0C3878.7 0 3757.3 0 3636.2 0C3515 0 3394 0 3272.8 0C3151.7 0 3030.3 0 2909 0C2787.7 0 2666.3 0 2545.2 0C2424 0 2303 0 2181.8 0C2060.7 0 1939.3 0 1818.2 0C1697 0 1576 0 1454.8 0C1333.7 0 1212.3 0 1091 0C969.7 0 848.3 0 727.2 0C606 0 485 0 363.8 0C242.7 0 121.3 0 60.7 0L0 0Z" fill="#f3ffd4"></path><path d="M0 270L60.7 297C121.3 324 242.7 378 363.8 389.5C485 401 606 370 727.2 365C848.3 360 969.7 381 1091 383.7C1212.3 386.3 1333.7 370.7 1454.8 363.3C1576 356 1697 357 1818.2 369C1939.3 381 2060.7 404 2181.8 405.8C2303 407.7 2424 388.3 2545.2 367.7C2666.3 347 2787.7 325 2909 334.8C3030.3 344.7 3151.7 386.3 3272.8 378.3C3394 370.3 3515 312.7 3636.2 316.2C3757.3 319.7 3878.7 384.3 3939.3 416.7L4000 449L4000 0L3939.3 0C3878.7 0 3757.3 0 3636.2 0C3515 0 3394 0 3272.8 0C3151.7 0 3030.3 0 2909 0C2787.7 0 2666.3 0 2545.2 0C2424 0 2303 0 2181.8 0C2060.7 0 1939.3 0 1818.2 0C1697 0 1576 0 1454.8 0C1333.7 0 1212.3 0 1091 0C969.7 0 848.3 0 727.2 0C606 0 485 0 363.8 0C242.7 0 121.3 0 60.7 0L0 0Z" fill="#ecffbe"></path><path d="M0 333L60.7 311.2C121.3 289.3 242.7 245.7 363.8 252.3C485 259 606 316 727.2 315.8C848.3 315.7 969.7 258.3 1091 246.2C1212.3 234 1333.7 267 1454.8 290.8C1576 314.7 1697 329.3 1818.2 314.8C1939.3 300.3 2060.7 256.7 2181.8 254.5C2303 252.3 2424 291.7 2545.2 288.3C2666.3 285 2787.7 239 2909 222.3C3030.3 205.7 3151.7 218.3 3272.8 240C3394 261.7 3515 292.3 3636.2 309.7C3757.3 327 3878.7 331 3939.3 333L4000 335L4000 0L3939.3 0C3878.7 0 3757.3 0 3636.2 0C3515 0 3394 0 3272.8 0C3151.7 0 3030.3 0 2909 0C2787.7 0 2666.3 0 2545.2 0C2424 0 2303 0 2181.8 0C2060.7 0 1939.3 0 1818.2 0C1697 0 1576 0 1454.8 0C1333.7 0 1212.3 0 1091 0C969.7 0 848.3 0 727.2 0C606 0 485 0 363.8 0C242.7 0 121.3 0 60.7 0L0 0Z" fill="#e4ffa8"></path><path d="M0 255L60.7 247.7C121.3 240.3 242.7 225.7 363.8 205.7C485 185.7 606 160.3 727.2 157.8C848.3 155.3 969.7 175.7 1091 175.5C1212.3 175.3 1333.7 154.7 1454.8 146C1576 137.3 1697 140.7 1818.2 144.7C1939.3 148.7 2060.7 153.3 2181.8 160C2303 166.7 2424 175.3 2545.2 194.2C2666.3 213 2787.7 242 2909 246C3030.3 250 3151.7 229 3272.8 218.3C3394 207.7 3515 207.3 3636.2 193.5C3757.3 179.7 3878.7 152.3 3939.3 138.7L4000 125L4000 0L3939.3 0C3878.7 0 3757.3 0 3636.2 0C3515 0 3394 0 3272.8 0C3151.7 0 3030.3 0 2909 0C2787.7 0 2666.3 0 2545.2 0C2424 0 2303 0 2181.8 0C2060.7 0 1939.3 0 1818.2 0C1697 0 1576 0 1454.8 0C1333.7 0 1212.3 0 1091 0C969.7 0 848.3 0 727.2 0C606 0 485 0 363.8 0C242.7 0 121.3 0 60.7 0L0 0Z" fill="#dcff91"></path><path d="M0 141L60.7 145.7C121.3 150.3 242.7 159.7 363.8 162.2C485 164.7 606 160.3 727.2 161.5C848.3 162.7 969.7 169.3 1091 152.7C1212.3 136 1333.7 96 1454.8 86.7C1576 77.3 1697 98.7 1818.2 106C1939.3 113.3 2060.7 106.7 2181.8 100C2303 93.3 2424 86.7 2545.2 85.2C2666.3 83.7 2787.7 87.3 2909 86.7C3030.3 86 3151.7 81 3272.8 84C3394 87 3515 98 3636.2 97.8C3757.3 97.7 3878.7 86.3 3939.3 80.7L4000 75L4000 0L3939.3 0C3878.7 0 3757.3 0 3636.2 0C3515 0 3394 0 3272.8 0C3151.7 0 3030.3 0 2909 0C2787.7 0 2666.3 0 2545.2 0C2424 0 2303 0 2181.8 0C2060.7 0 1939.3 0 1818.2 0C1697 0 1576 0 1454.8 0C1333.7 0 1212.3 0 1091 0C969.7 0 848.3 0 727.2 0C606 0 485 0 363.8 0C242.7 0 121.3 0 60.7 0L0 0Z" fill="#d3ff7a"></path></svg>