<svg version="1.2" baseProfile="tiny-ps" xmlns="http://www.w3.org/2000/svg" viewBox="0 0 175 158" width="175" height="158">
	<title>Page 1</title>
	<style>
		tspan { white-space:pre }
		.shp0 { fill: #fff0d8 } 
	</style>
	<g id="Page 1">
		<path id="Path 6 copy 2" class="shp0" d="M18.35 151.68C18.05 151.44 17.66 151.17 17.33 150.84C16.55 150.07 16.5 149.28 17.32 148.57C18.53 147.51 19.82 146.53 21.12 145.59C22.51 144.59 23.95 143.66 25.38 142.72C26.16 142.2 26.98 141.73 27.75 141.18C28.46 140.68 28.22 139.95 27.94 139.38C27.82 139.13 27.23 139.04 26.83 138.99C25.08 138.74 23.33 138.56 21.58 138.3C20.76 138.18 19.95 137.93 19.13 137.77C17.84 137.51 17.51 136.43 17.15 135.45C16.63 134.01 17.22 133.27 18.91 133.03C22.37 132.53 25.13 130.9 27.37 128.22C28.46 126.92 29.84 125.87 31.14 124.76C31.93 124.08 32.36 123.34 32.44 122.25C32.53 120.93 32.88 119.63 33.17 118.33C33.47 117 33.81 115.67 34.15 114.34C34.47 113.1 34.8 111.86 35.15 110.63C35.47 109.53 35.84 108.45 36.13 107.34C36.19 107.14 36.01 106.82 35.85 106.62C34.21 104.65 32.41 102.79 30.97 100.69C29.64 98.76 28.61 96.62 27.64 94.48C26.81 92.68 26.2 90.77 25.58 88.87C24.32 84.98 23.51 81.02 23.88 76.9C24.15 73.88 25.05 71.09 26.85 68.62C27.11 68.26 27.17 68.01 26.88 67.62C26.56 67.18 26.32 66.68 26.08 66.19C25.84 65.68 25.52 65.62 24.99 65.77C23.58 66.16 22.16 66.54 20.71 66.78C19.85 66.92 18.93 66.82 18.05 66.74C17.36 66.67 16.68 66.47 16.01 66.3C15.37 66.15 14.81 66.24 14.18 66.46C11.93 67.24 9.25 65.81 8.78 63.5C8.53 62.26 7.7 61.62 6.83 60.91C6.13 60.33 5.13 60.12 4.69 59.19C4.28 58.35 4.23 57.53 4.73 56.76C5.05 56.26 4.92 56.04 4.49 55.72C3.52 55.02 2.57 54.3 1.69 53.5C0.57 52.47 0.54 51.69 1.36 50.38C1.69 49.83 1.99 49.26 2.24 48.67C2.56 47.9 2.31 47.25 1.73 46.67C1.27 46.22 0.82 45.76 0.46 45.23C-0.25 44.2 -0.14 43.08 0.81 42.22C1.75 41.39 2.74 40.61 3.77 39.89C5.75 38.51 5.87 36.6 5.48 34.51C5.02 32.05 4.34 29.61 4.16 27.13C4.03 25.28 4.4 23.36 4.81 21.53C5.51 18.42 7.12 15.73 9.05 13.55C8.93 12.28 8.82 11.21 8.72 10.15C8.78 10.14 8.84 10.12 8.91 10.11C9.39 10.79 9.87 11.46 10.47 12.29C10.99 11.33 9.73 10.89 10.18 10.2C10.17 10.19 10.23 10.2 10.25 10.23C11.09 11.42 11.26 11.46 12.3 10.5C15.72 7.35 19.64 4.97 23.9 3.13C26.54 1.98 29.32 1.23 32.16 0.7C35.85 0.01 39.57 -0.09 43.3 0.06C44.73 0.12 46.15 0.53 47.58 0.78C50.29 1.26 52.85 2.15 55.24 3.48C57.4 4.68 59.4 6.07 61.12 7.88C62.68 9.52 64.01 11.28 65.24 13.15C66.74 15.42 67.83 17.85 68.4 20.5C68.99 23.29 69.1 26.08 68.7 28.92C68.32 31.65 67.42 34.23 66.57 36.83C66.07 38.39 65.65 39.97 65.13 41.53C64.92 42.17 64.63 42.81 64.25 43.37C63.6 44.36 63.69 45.29 64.3 46.23C64.36 46.33 64.42 46.44 64.48 46.54C64.49 46.56 64.47 46.58 64.45 46.71C63.97 46.42 63.52 46.16 63.01 45.86C62.81 46.86 63.3 47.58 63.67 48.42C63.06 47.98 62.45 47.53 61.84 47.09C61.79 47.11 61.73 47.13 61.68 47.16C61.84 47.64 62 48.11 62.23 48.81C61.75 48.3 61.41 47.94 61 47.51C60.78 48.13 60.59 48.73 60.34 49.32C59.99 50.14 59.57 50.94 59.22 51.77C58.98 52.32 58.62 52.91 58.64 53.47C58.67 55.21 58.86 56.95 58.99 58.69C59.06 59.47 59.15 60.26 59.22 61.04C59.29 61.9 59.6 62.61 60.28 63.21C61.88 64.62 63.43 66.08 65 67.53C66.6 69 68.5 70.01 70.48 70.82C72.72 71.73 75 72.51 77.28 73.31C78.36 73.69 79.48 73.97 80.57 74.33C81.56 74.66 82.52 75.09 83.52 75.4C84.72 75.79 85.95 76.11 87.18 76.43C88.84 76.85 90.49 77.3 92.16 77.62C92.92 77.76 93.76 77.76 94.52 77.61C98.31 76.86 102.06 75.89 105.97 76.03C108.69 76.12 111.29 76.77 113.76 77.91C116.32 79.09 118.51 80.74 120.33 82.87C122.03 84.86 123.3 87.11 124.05 89.61C124.54 91.27 124.97 92.96 125.27 94.67C125.49 95.86 125.52 97.11 125.47 98.33C125.36 100.55 125.14 102.76 124.95 104.98C124.89 105.72 124.78 106.46 124.68 107.32C126.28 105.72 126.96 103.83 127.56 101.87C128.06 100.24 128.7 98.63 130.44 97.85C131.55 97.36 132.78 97.39 133.85 97.75C135.6 98.34 137.27 99.2 138.97 99.97C140.52 100.68 142.02 101.54 143.61 102.14C144.97 102.65 146.45 102.86 147.87 103.24C148.81 103.49 149.77 103.74 150.67 104.11C152.18 104.74 153.79 104.84 155.37 105.17C156.79 105.46 158.15 106.03 159.56 106.4C160.46 106.64 161.39 106.86 162.32 106.87C163.45 106.89 164.51 107.1 165.5 107.61C166.3 108.02 166.93 109.17 166.79 109.86C166.64 110.62 165.86 111.32 165.13 111.44C164.47 111.54 163.77 111.61 163.19 111.89C161.77 112.57 160.28 112.69 158.75 112.71C157.96 112.73 157.21 112.71 156.44 113.11C155.79 113.45 154.97 113.47 154.22 113.62C152.26 114.02 150.3 114.42 148.34 114.8C147.34 114.99 146.33 115.1 145.35 115.34C144.95 115.44 144.46 115.68 144.27 116.01C143.08 118.03 141.94 120.08 140.82 122.14C140.58 122.59 140.42 123.11 140.36 123.62C140.28 124.25 140.58 124.5 141.21 124.43C144.04 124.09 146.47 123.13 148.17 120.66C148.64 119.97 149.65 119.59 150.48 119.22C153.51 117.88 155.98 119.01 158.02 121.2C160.17 123.52 162.14 126.01 164.22 128.39C165.66 130.04 167.18 131.62 168.64 133.26C170.11 134.91 171.08 136.86 172.07 138.8C172.53 139.72 172.76 140.65 172.77 141.68C172.77 142.04 173.04 142.41 173.25 142.74C173.5 143.14 173.83 143.5 174.11 143.88C174.18 143.99 174.22 144.15 174.23 144.28C174.29 144.97 173.02 146.79 172.36 146.92C170.34 147.33 168.32 147.73 166.26 147.27C165.71 147.14 165.14 146.95 164.66 146.67C163.36 145.91 162.07 145.13 160.83 144.28C158.77 142.84 156.3 142.32 154.05 141.29C153.15 140.88 152.39 141.44 151.6 141.79C149.69 142.62 147.79 143.44 145.86 144.23C144.32 144.86 142.76 145.48 141.17 146C139.49 146.55 137.78 147.04 136.06 147.46C130.95 148.69 125.75 149.06 120.51 148.95C118.14 148.9 115.85 149.39 113.54 149.76C111.97 150 110.37 149.98 108.79 149.57C106.25 148.9 104.38 147.26 102.67 145.44C100.2 142.82 98.08 139.94 96.48 136.71C95.05 133.82 92.93 131.38 91.08 128.77C89.94 127.15 88.9 125.46 87.85 123.78C87.58 123.35 87.29 123.14 86.78 123.08C84.65 122.84 82.52 122.59 80.4 122.25C78.9 122.02 77.42 121.7 75.95 121.32C75.22 121.13 74.56 120.7 73.86 120.4C71.39 119.38 68.91 118.37 66.44 117.33C66.01 117.15 65.79 117.3 65.57 117.67C63.92 120.59 62.32 123.56 60.55 126.41C58.83 129.18 56.98 131.89 55.06 134.54C53.07 137.29 51.09 140.07 48.32 142.17C47.53 142.77 47.28 143.64 47.06 144.57C46.53 146.83 45.37 148.64 43.2 149.74C42.73 149.98 42.42 150.54 41.98 150.88C41.28 151.43 40.58 152 39.79 152.4C39.06 152.78 38.2 152.92 37.43 153.24C36.62 153.58 35.83 154 35.04 154.4C33.75 155.06 32.49 155.79 31.17 156.38C30.31 156.76 29.55 156.35 29.04 155.62C28.74 155.19 28.5 155.14 28.03 155.37C26.94 155.9 25.83 156.43 24.69 156.85C23.01 157.46 21.84 156.75 21.47 155.01C21.44 154.89 21.15 154.7 21.01 154.72C19.58 154.98 18.55 154.48 18.13 153.14C18 152.72 18.26 152.19 18.35 151.68Z" />
	</g>
</svg>