<svg id="visual" viewBox="0 0 8000 300" width="8000" height="300" xmlns="http://www.w3.org/2000/svg" xmlns:xlink="http://www.w3.org/1999/xlink" version="1.1"><path d="M0 128L74 133.7C148 139.3 296 150.7 444.2 148.2C592.3 145.7 740.7 129.3 888.8 125.7C1037 122 1185 131 1333.2 143.8C1481.3 156.7 1629.7 173.3 1777.8 168.7C1926 164 2074 138 2222.2 127.3C2370.3 116.7 2518.7 121.3 2666.8 122.8C2815 124.3 2963 122.7 3111.2 127.2C3259.3 131.7 3407.7 142.3 3555.8 146.7C3704 151 3852 149 4000 160.8C4148 172.7 4296 198.3 4444.2 212.2C4592.3 226 4740.7 228 4888.8 221C5037 214 5185 198 5333.2 199.8C5481.3 201.7 5629.7 221.3 5777.8 228.7C5926 236 6074 231 6222.2 219.2C6370.3 207.3 6518.7 188.7 6666.8 192.5C6815 196.3 6963 222.7 7111.2 213C7259.3 203.3 7407.7 157.7 7555.8 145.8C7704 134 7852 156 7926 167L8000 178L8000 0L7926 0C7852 0 7704 0 7555.8 0C7407.7 0 7259.3 0 7111.2 0C6963 0 6815 0 6666.8 0C6518.7 0 6370.3 0 6222.2 0C6074 0 5926 0 5777.8 0C5629.7 0 5481.3 0 5333.2 0C5185 0 5037 0 4888.8 0C4740.7 0 4592.3 0 4444.2 0C4296 0 4148 0 4000 0C3852 0 3704 0 3555.8 0C3407.7 0 3259.3 0 3111.2 0C2963 0 2815 0 2666.8 0C2518.7 0 2370.3 0 2222.2 0C2074 0 1926 0 1777.8 0C1629.7 0 1481.3 0 1333.2 0C1185 0 1037 0 888.8 0C740.7 0 592.3 0 444.2 0C296 0 148 0 74 0L0 0Z" fill="#c0f84f"></path><path d="M0 101L74 100.5C148 100 296 99 444.2 101.7C592.3 104.3 740.7 110.7 888.8 128.8C1037 147 1185 177 1333.2 172.5C1481.3 168 1629.7 129 1777.8 108.8C1926 88.7 2074 87.3 2222.2 87.5C2370.3 87.7 2518.7 89.3 2666.8 104.3C2815 119.3 2963 147.7 3111.2 148.8C3259.3 150 3407.7 124 3555.8 113.3C3704 102.7 3852 107.3 4000 108C4148 108.7 4296 105.3 4444.2 117.7C4592.3 130 4740.7 158 4888.8 165.8C5037 173.7 5185 161.3 5333.2 148.3C5481.3 135.3 5629.7 121.7 5777.8 116.2C5926 110.7 6074 113.3 6222.2 109.5C6370.3 105.7 6518.7 95.3 6666.8 103.3C6815 111.3 6963 137.7 7111.2 142.3C7259.3 147 7407.7 130 7555.8 133.3C7704 136.7 7852 160.3 7926 172.2L8000 184L8000 0L7926 0C7852 0 7704 0 7555.8 0C7407.7 0 7259.3 0 7111.2 0C6963 0 6815 0 6666.8 0C6518.7 0 6370.3 0 6222.2 0C6074 0 5926 0 5777.8 0C5629.7 0 5481.3 0 5333.2 0C5185 0 5037 0 4888.8 0C4740.7 0 4592.3 0 4444.2 0C4296 0 4148 0 4000 0C3852 0 3704 0 3555.8 0C3407.7 0 3259.3 0 3111.2 0C2963 0 2815 0 2666.8 0C2518.7 0 2370.3 0 2222.2 0C2074 0 1926 0 1777.8 0C1629.7 0 1481.3 0 1333.2 0C1185 0 1037 0 888.8 0C740.7 0 592.3 0 444.2 0C296 0 148 0 74 0L0 0Z" fill="#d3fa81"></path><path d="M0 59L74 60.3C148 61.7 296 64.3 444.2 79.2C592.3 94 740.7 121 888.8 130.2C1037 139.3 1185 130.7 1333.2 133.2C1481.3 135.7 1629.7 149.3 1777.8 143.8C1926 138.3 2074 113.7 2222.2 113.3C2370.3 113 2518.7 137 2666.8 136.5C2815 136 2963 111 3111.2 111.7C3259.3 112.3 3407.7 138.7 3555.8 134C3704 129.3 3852 93.7 4000 82.7C4148 71.7 4296 85.3 4444.2 90.7C4592.3 96 4740.7 93 4888.8 99.2C5037 105.3 5185 120.7 5333.2 123.5C5481.3 126.3 5629.7 116.7 5777.8 117.5C5926 118.3 6074 129.7 6222.2 138.5C6370.3 147.3 6518.7 153.7 6666.8 141C6815 128.3 6963 96.7 7111.2 88C7259.3 79.3 7407.7 93.7 7555.8 105.5C7704 117.3 7852 126.7 7926 131.3L8000 136L8000 0L7926 0C7852 0 7704 0 7555.8 0C7407.7 0 7259.3 0 7111.2 0C6963 0 6815 0 6666.8 0C6518.7 0 6370.3 0 6222.2 0C6074 0 5926 0 5777.8 0C5629.7 0 5481.3 0 5333.2 0C5185 0 5037 0 4888.8 0C4740.7 0 4592.3 0 4444.2 0C4296 0 4148 0 4000 0C3852 0 3704 0 3555.8 0C3407.7 0 3259.3 0 3111.2 0C2963 0 2815 0 2666.8 0C2518.7 0 2370.3 0 2222.2 0C2074 0 1926 0 1777.8 0C1629.7 0 1481.3 0 1333.2 0C1185 0 1037 0 888.8 0C740.7 0 592.3 0 444.2 0C296 0 148 0 74 0L0 0Z" fill="#e4fcac"></path><path d="M0 96L74 87.8C148 79.7 296 63.3 444.2 67.5C592.3 71.7 740.7 96.3 888.8 98.8C1037 101.3 1185 81.7 1333.2 70.5C1481.3 59.3 1629.7 56.7 1777.8 63.2C1926 69.7 2074 85.3 2222.2 96.2C2370.3 107 2518.7 113 2666.8 105C2815 97 2963 75 3111.2 73.3C3259.3 71.7 3407.7 90.3 3555.8 96.5C3704 102.7 3852 96.3 4000 89.5C4148 82.7 4296 75.3 4444.2 78.8C4592.3 82.3 4740.7 96.7 4888.8 96C5037 95.3 5185 79.7 5333.2 73.8C5481.3 68 5629.7 72 5777.8 79.7C5926 87.3 6074 98.7 6222.2 105.7C6370.3 112.7 6518.7 115.3 6666.8 107.3C6815 99.3 6963 80.7 7111.2 77.5C7259.3 74.3 7407.7 86.7 7555.8 85.7C7704 84.7 7852 70.3 7926 63.2L8000 56L8000 0L7926 0C7852 0 7704 0 7555.8 0C7407.7 0 7259.3 0 7111.2 0C6963 0 6815 0 6666.8 0C6518.7 0 6370.3 0 6222.2 0C6074 0 5926 0 5777.8 0C5629.7 0 5481.3 0 5333.2 0C5185 0 5037 0 4888.8 0C4740.7 0 4592.3 0 4444.2 0C4296 0 4148 0 4000 0C3852 0 3704 0 3555.8 0C3407.7 0 3259.3 0 3111.2 0C2963 0 2815 0 2666.8 0C2518.7 0 2370.3 0 2222.2 0C2074 0 1926 0 1777.8 0C1629.7 0 1481.3 0 1333.2 0C1185 0 1037 0 888.8 0C740.7 0 592.3 0 444.2 0C296 0 148 0 74 0L0 0Z" fill="#f3fed6"></path><path d="M0 27L74 32C148 37 296 47 444.2 44.7C592.3 42.3 740.7 27.7 888.8 27.3C1037 27 1185 41 1333.2 42.5C1481.3 44 1629.7 33 1777.8 34.2C1926 35.3 2074 48.7 2222.2 56.2C2370.3 63.7 2518.7 65.3 2666.8 64.3C2815 63.3 2963 59.7 3111.2 58.8C3259.3 58 3407.7 60 3555.8 55.3C3704 50.7 3852 39.3 4000 34C4148 28.7 4296 29.3 4444.2 27.8C4592.3 26.3 4740.7 22.7 4888.8 29.3C5037 36 5185 53 5333.2 62.7C5481.3 72.3 5629.7 74.7 5777.8 68.5C5926 62.3 6074 47.7 6222.2 41.2C6370.3 34.7 6518.7 36.3 6666.8 36C6815 35.7 6963 33.3 7111.2 38C7259.3 42.7 7407.7 54.3 7555.8 57.7C7704 61 7852 56 7926 53.5L8000 51L8000 0L7926 0C7852 0 7704 0 7555.8 0C7407.7 0 7259.3 0 7111.2 0C6963 0 6815 0 6666.8 0C6518.7 0 6370.3 0 6222.2 0C6074 0 5926 0 5777.8 0C5629.7 0 5481.3 0 5333.2 0C5185 0 5037 0 4888.8 0C4740.7 0 4592.3 0 4444.2 0C4296 0 4148 0 4000 0C3852 0 3704 0 3555.8 0C3407.7 0 3259.3 0 3111.2 0C2963 0 2815 0 2666.8 0C2518.7 0 2370.3 0 2222.2 0C2074 0 1926 0 1777.8 0C1629.7 0 1481.3 0 1333.2 0C1185 0 1037 0 888.8 0C740.7 0 592.3 0 444.2 0C296 0 148 0 74 0L0 0Z" fill="#ffffff"></path></svg>